<?xml version="1.0" encoding="UTF-8"?>
<svg id="Logo"
    xmlns="http://www.w3.org/2000/svg" width="120mm" height="56.9mm" viewBox="0 0 340.16 161.3">
    <path d="M302.43,80.65c0,19.4-7.38,38.16-20.27,52.3h8.63c13.64-14.64,21.02-32.91,21.02-52.3s-7.51-37.79-21.02-52.3h-8.63c12.89,14.39,20.27,33.16,20.27,52.3m-56.88-8.38c6.51,0,10.51,4.5,10.51,12.14v2.5c0,7.63-4,12.26-10.51,12.26s-10.64-5.13-10.64-13.51,4-13.39,10.64-13.39m-6.88,45.92c7.38,0,14.26-3,17.39-7.38v4c0,7.38-4.26,11.51-11.76,11.51-5.51,0-9.63-2.5-10.76-6.88l-22.77,4.25c3,12.89,14.89,20.15,32.53,20.15,22.65,0,36.54-11.89,36.54-31.91V54.62h-23.77v6.13c-3.13-4.5-10.01-7.63-17.39-7.63-18.65,0-28.03,15.52-28.03,32.66,0,19.15,11.01,32.41,28.03,32.41m-99.43-63.57v43.67c0,14.39,9.01,23.9,22.52,23.9,7.01,0,13.26-2.75,17.64-7.63v6.13h23.78V54.62h-23.78v37.54c0,5.88-3.5,9.51-8.63,9.51s-7.76-3.25-7.76-9.13V54.62h-23.77ZM65.4,30.85V120.69h23.78v-36.91c0-5.88,3.63-9.63,8.76-9.63s7.63,3.5,7.63,9.51v37.04h23.77v-43.67c0-14.51-8.76-23.9-22.15-23.9-7.01,0-13.89,3-18.02,7.63V30.85h-23.78Zm-27.67,49.8c0-19.14,7.38-37.91,20.27-52.3h-8.63c-13.51,14.51-21.02,32.78-21.02,52.3s7.38,37.66,21.02,52.3h8.63c-12.89-14.14-20.27-32.91-20.27-52.3"/>
</svg>