<svg width="16" height="16" viewBox="0 0 16 16" fill="none" xmlns="http://www.w3.org/2000/svg">
<path d="M8 0C6.41775 0 4.87104 0.469192 3.55544 1.34824C2.23985 2.22729 1.21447 3.47672 0.608967 4.93853C0.00346629 6.40034 -0.15496 8.00887 0.153721 9.56072C0.462403 11.1126 1.22433 12.538 2.34315 13.6569C3.46197 14.7757 4.88743 15.5376 6.43928 15.8463C7.99113 16.155 9.59966 15.9965 11.0615 15.391C12.5233 14.7855 13.7727 13.7602 14.6518 12.4446C15.5308 11.129 16 9.58225 16 8C16 5.87827 15.1571 3.84344 13.6569 2.34315C12.1566 0.842855 10.1217 0 8 0ZM10.3067 12.4733C10.2991 12.5024 10.2847 12.5292 10.2646 12.5515C10.2444 12.5737 10.2192 12.5908 10.1911 12.6013C10.163 12.6118 10.1327 12.6153 10.1029 12.6116C10.0732 12.6079 10.0447 12.597 10.02 12.58L6.61334 10.1133C6.5769 10.0848 6.55107 10.0449 6.54 10C6.53921 9.97468 6.54421 9.94951 6.5546 9.9264C6.565 9.9033 6.58053 9.88287 6.6 9.86667L9.66 7.2C9.67833 7.18131 9.68859 7.15617 9.68859 7.13C9.68859 7.10382 9.67833 7.07869 9.66 7.06C9.64508 7.03795 9.62288 7.02186 9.59728 7.01454C9.57168 7.00723 9.54432 7.00916 9.52 7.02L5.12 9.25333C5.09921 9.26337 5.07642 9.26858 5.05334 9.26858C5.03025 9.26858 5.00746 9.26337 4.98667 9.25333L2.88 8.49333C2.84611 8.47886 2.81726 8.45467 2.7971 8.42382C2.77693 8.39298 2.76634 8.35685 2.76667 8.32C2.76477 8.28366 2.77482 8.24769 2.79529 8.21759C2.81575 8.1875 2.84551 8.16493 2.88 8.15333L11.8533 4.73333C11.8833 4.72072 11.9163 4.71715 11.9483 4.72307C11.9803 4.729 12.0099 4.74415 12.0333 4.76667C12.0585 4.78857 12.0774 4.81682 12.0879 4.84847C12.0985 4.88013 12.1003 4.91404 12.0933 4.94667L10.3067 12.4733Z" fill="#3C4043"/>
</svg>
