<svg width="16" height="16" viewBox="0 0 16 16" fill="none" xmlns="http://www.w3.org/2000/svg">
<path fill-rule="evenodd" clip-rule="evenodd" d="M8 15.8966C12.4183 15.8966 16 12.3611 16 7.99991C16 3.63872 12.4183 0.103271 8 0.103271C3.58173 0.103271 0 3.63872 0 7.99991C0 12.3611 3.58173 15.8966 8 15.8966Z" fill="#3C4043"/>
<path fill-rule="evenodd" clip-rule="evenodd" d="M6.53711 3.78271C6.53711 3.46396 6.79942 3.20557 7.12302 3.20557C9.31624 3.20557 11.0942 4.9569 11.0942 7.11729C11.0942 7.43604 10.8319 7.69444 10.5083 7.69444C10.1847 7.69444 9.92237 7.43604 9.92237 7.11729C9.92237 5.5944 8.66905 4.35986 7.12302 4.35986C6.79942 4.35986 6.53711 4.10145 6.53711 3.78271Z" fill="white"/>
<path fill-rule="evenodd" clip-rule="evenodd" d="M12.271 6.54004C12.5946 6.54004 12.8569 6.79843 12.8569 7.11718C12.8569 9.27756 11.0789 11.0289 8.88572 11.0289C8.56213 11.0289 8.2998 10.7705 8.2998 10.4518C8.2998 10.133 8.56213 9.87462 8.88572 9.87462C10.4318 9.87462 11.6851 8.64007 11.6851 7.11718C11.6851 6.79843 11.9474 6.54004 12.271 6.54004Z" fill="white"/>
<path fill-rule="evenodd" clip-rule="evenodd" d="M9.47213 12.2171C9.47213 12.5359 9.2098 12.7943 8.88621 12.7943C6.693 12.7943 4.91504 11.0429 4.91504 8.88257C4.91504 8.56381 5.17737 8.30542 5.50095 8.30542C5.82454 8.30542 6.08687 8.56381 6.08687 8.88257C6.08687 10.4055 7.34018 11.64 8.88621 11.64C9.2098 11.64 9.47213 11.8984 9.47213 12.2171Z" fill="white"/>
<path fill-rule="evenodd" clip-rule="evenodd" d="M3.72848 9.45982C3.40489 9.45982 3.14258 9.20143 3.14258 8.88267C3.14256 6.7223 4.92052 4.97095 7.11375 4.97095C7.43734 4.97095 7.69966 5.22935 7.69966 5.54809C7.69966 5.86685 7.43734 6.12524 7.11375 6.12524C5.56771 6.12524 4.31439 7.35979 4.31439 8.88267C4.31439 9.20143 4.05208 9.45982 3.72848 9.45982Z" fill="white"/>
</svg>
