<?xml version="1.0" encoding="UTF-8"?>
<svg enable-background="new 0 0 28.5 28.39" version="1.1" viewBox="0 0 28.5 28.39" xml:space="preserve"
	xmlns="http://www.w3.org/2000/svg">
	<style type="text/css">
	.st0{fill:#12100B;}
	</style>
	<path class="st0" d="m0.16 3.87c0-1.95 1.31-3.73 3.71-3.73s3.7 1.76 3.7 3.69c0 1.95-1.26 3.76-3.67 3.76-2.4-0.01-3.74-1.78-3.74-3.72m5.8 0c0-1.34-0.62-2.5-2.06-2.5s-2.12 1.12-2.12 2.46c0 1.35 0.66 2.52 2.09 2.52 1.45 0 2.09-1.14 2.09-2.48"/>
	<path class="st0" d="m8.91 0.27h2.36c1.56 0 2.75 0.72 2.75 2.27 0 1.56-1.13 2.36-2.92 2.36h-0.66v2.56h-1.53v-7.19zm2.21 3.47c0.96 0 1.37-0.39 1.37-1.19 0-0.72-0.4-1.12-1.34-1.12h-0.71v2.31h0.68z"/>
	<polygon class="st0" points="15.31 0.27 19.45 0.27 19.45 1.52 16.81 1.52 16.81 3.14 19.14 3.14 19.14 4.33 16.81 4.33 16.81 6.2 19.53 6.2 19.53 7.45 15.31 7.45"/>
	<path class="st0" d="m21.02 0.27h1.53l2.59 3.72c0.43 0.62 0.69 1.09 0.75 1.21h0.02c-0.01-0.1-0.04-0.58-0.04-1.13v-3.8h1.38v7.19h-1.39l-2.79-3.99c-0.39-0.54-0.6-0.94-0.69-1.08h-0.02c0.01 0.1 0.04 0.51 0.04 0.96v4.11h-1.38v-7.19z"/>
	<path class="st0" d="m0.56 9.69h2.17c2.83 0 4.11 1.42 4.11 3.5 0 2.07-1.31 3.69-4.16 3.69h-2.12v-7.19zm2.23 5.97c1.62 0 2.44-0.83 2.44-2.43 0-1.61-0.79-2.32-2.49-2.32h-0.66v4.75h0.71z"/>
	<path class="st0" d="m10.26 9.69h1.47l2.82 7.19h-1.66l-0.49-1.35h-2.88l-0.48 1.35h-1.53l2.75-7.19zm1.7 4.62-0.62-1.71c-0.23-0.62-0.32-1.08-0.39-1.24h-0.02c-0.05 0.17-0.17 0.66-0.38 1.24l-0.61 1.71h2.02z"/>
	<polygon class="st0" points="17.2 10.95 15.21 10.95 15.21 9.69 20.7 9.69 20.7 10.95 18.73 10.95 18.73 16.88 17.2 16.88"/>
	<path class="st0" d="m24.12 9.69h1.47l2.82 7.19h-1.66l-0.49-1.35h-2.87l-0.48 1.35h-1.53l2.74-7.19zm1.7 4.62-0.62-1.71c-0.23-0.62-0.32-1.08-0.39-1.24h-0.01c-0.05 0.17-0.17 0.66-0.38 1.24l-0.61 1.71h2.01z"/>
	<polygon class="st0" points="0.56 18.82 2.15 18.82 2.15 22.63 6.84 22.63 6.84 18.82 8.43 18.82 8.43 28.19 6.84 28.19 6.84 23.94 2.15 23.94 2.15 28.19 0.56 28.19"/>
	<path class="st0" d="m11.13 24.61v-5.8h1.59v5.65c0 1.75 0.68 2.58 2.28 2.58 1.52 0 2.2-0.96 2.2-2.42v-5.8h1.48v5.67c0 2.43-1.21 3.87-3.72 3.87-2.65 0-3.83-1.41-3.83-3.75"/>
	<path class="st0" d="m21.57 18.81h2.83c1.75 0 3.17 0.61 3.17 2.34 0 1.17-0.65 1.84-1.68 2.11v0.03c1.14 0.18 2.07 0.96 2.07 2.28 0 1.91-1.48 2.62-3.6 2.62h-2.79v-9.38zm2.65 3.93c1.23 0 1.76-0.44 1.76-1.38 0-0.9-0.59-1.3-1.73-1.3h-1.11v2.68h1.08zm0.08 4.2c1.36 0 2.04-0.42 2.04-1.45 0-0.99-0.55-1.55-1.96-1.55h-1.25v3h1.17z"/>
</svg>
