<?xml version="1.0" encoding="UTF-8"?>
  <svg
    xmlns="http://www.w3.org/2000/svg"
    fill="none"
    height="50"
    viewBox="0 0 109 50"
    width="109"
  >
    <path
      d="M13.9356 32.2773L21.2749 39.6166H38.2076V0H23.9902V7.32644L16.6638 0H0V39.6166H13.9356V32.2773ZM21.9025 39.117L32.5079 27.5766L37.5928 39.117H21.9025ZM37.6953 38.0796L32.8793 27.1539L37.6953 2.58731V38.0796ZM37.58 0.512338L32.5207 26.2958L24.5026 7.82597V0.525146H37.58V0.512338ZM24.2464 8.51763L32.2901 27.0515L21.3389 38.9633L14.0637 31.6881L24.2464 8.51763ZM16.1002 0.512338L5.63572 17.4835L0.653232 0.512338H16.1002ZM0.512338 1.88284L5.2899 18.1112L0.512338 37.2726V1.88284ZM13.4233 39.117H0.576381L5.63572 18.7772L13.4233 31.9187V39.117ZM13.6154 31.2398L5.84066 18.1112L16.5998 0.66604L23.9134 7.97967L13.6666 31.2911L13.6154 31.2398Z"
      fill="black"
    ></path>
    <path
      d="M71.7017 39.6294L82.115 32.0596L86.0728 19.8915L86.0984 19.8147L82.1406 7.64665L82.115 7.5698L71.7657 0.0512331L71.7017 0H58.8292L48.4159 7.5698L44.4325 19.8147L48.4159 32.0596L58.7652 39.5781L58.8292 39.6294H71.7017ZM71.2406 39.117H59.38L73.6998 27.6919L71.2406 39.117ZM71.817 38.9121L74.2634 27.5254L81.4361 31.9187L71.817 38.9121ZM85.5476 19.8147L81.7563 31.5088L74.4555 27.0387L81.8716 8.4792L85.5476 19.8147ZM71.5352 0.512338L81.5898 7.81316L74.0969 26.5391L59.2775 0.512338H71.5352ZM58.9829 1.03748L73.5717 26.6416L56.2163 19.6866L58.9829 1.03748ZM48.8386 7.89001L58.4834 0.883783L55.7039 19.5585H45.0473L48.8386 7.89001ZM48.8386 31.7394L45.0473 20.0709H55.6655L58.573 38.8096L48.8386 31.7394ZM56.2163 20.2374L73.5205 27.1667L59.0726 38.6944L56.2163 20.2374Z"
      fill="black"
    ></path>
    <path
      d="M109 0H92.4771V39.6166H109V0ZM108.231 0.512338L103.966 11.3483L93.3352 0.512338H108.231ZM92.9766 0.883783L103.774 11.8863L100.764 25.4632L92.9766 28.8703V0.883783ZM92.9766 29.421L100.341 26.1933L92.9766 38.451V29.421ZM93.1815 39.117L100.982 26.1549L108.321 39.117H93.1815ZM108.488 38.3613L101.264 25.6041L104.133 12.6932L108.488 23.8494V38.3613ZM108.488 22.4276L104.338 11.8094L108.488 1.25523V22.4276Z"
      fill="black"
    ></path>
    <path
      d="M4.91851 47.5832H6.51957V47.0581H4.91851V45.6492H6.73731V45.124H4.29089V49.7735H6.78854V49.2483H4.91851V47.5832Z"
      fill="black"
    ></path>
    <path
      d="M33.1611 45.124H32.4438L30.6122 47.3399V45.124H29.9718V49.7735H30.6122V47.3655L32.5079 49.7735H33.2892L31.3167 47.3015L33.1611 45.124Z"
      fill="black"
    ></path>
    <path
      d="M48.8003 45.6492H50.1196V49.7735H50.7472V45.6492H52.0665V45.124H48.8003V45.6492Z"
      fill="black"
    ></path>
    <path
      d="M53.6291 45.124H52.9886V49.7863H53.6291V45.124Z"
      fill="black"
    ></path>
    <path
      d="M99.7267 45.124H99.0863V49.7863H99.7267V45.124Z"
      fill="black"
    ></path>
    <path
      d="M79.2972 45.6492H80.6037V49.7735H81.2441V45.6492H82.5634V45.124H79.2972V45.6492Z"
      fill="black"
    ></path>
    <path
      d="M0.0384521 45.6492H1.34491V49.7735H1.98534V45.6492H3.30461V45.124H0.0384521V45.6492Z"
      fill="black"
    ></path>
    <path
      d="M15.4855 47.0581H12.9622V45.124H12.3346V49.7735H12.9622V47.5961H15.4855V49.7735H16.1259V45.124H15.4855V47.0581Z"
      fill="black"
    ></path>
    <path
      d="M9.90098 49.3255C8.78665 49.3255 8.2615 48.4033 8.2615 47.417C8.2615 46.4436 8.81226 45.5598 9.88817 45.5598C10.3237 45.5598 10.6567 45.6751 10.9128 45.8672L11.2203 45.3933C10.8744 45.1756 10.4902 45.0347 9.90098 45.0347C8.44082 45.0347 7.59546 46.1746 7.59546 47.4299C7.59546 48.6851 8.4152 49.8506 9.88817 49.8506C10.5414 49.8506 11.0666 49.5945 11.3099 49.3767L11.0281 48.9284C10.7591 49.159 10.4005 49.3255 9.90098 49.3255Z"
      fill="black"
    ></path>
    <path
      d="M18.8413 45.124H17.5989V49.7863H18.2393V47.9419H18.7516C19.8532 47.9419 20.5064 47.4295 20.5064 46.4945C20.5064 45.5723 19.7891 45.124 18.8413 45.124ZM18.7644 47.4167H18.2393V45.6364H18.7901C19.5714 45.6364 19.866 45.9822 19.866 46.5073C19.866 47.1093 19.533 47.4167 18.7644 47.4167Z"
      fill="black"
    ></path>
    <path
      d="M22.466 45.124L20.6857 49.7863H21.3133L21.7103 48.6848H23.7853L24.1952 49.7863H24.8868L23.0937 45.124H22.466ZM21.9025 48.1596L22.466 46.661C22.5941 46.3024 22.671 46.0718 22.735 45.8541H22.7478C22.8119 46.0462 22.8759 46.264 23.0296 46.661L23.5804 48.1596H21.9025Z"
      fill="black"
    ></path>
    <path
      d="M27.6278 47.8266C28.2426 47.6217 28.5884 47.1734 28.5884 46.4945C28.5884 45.5723 27.8712 45.124 26.9233 45.124H25.6809V49.7863H26.3213V47.9291C26.3213 47.9291 26.7056 47.9291 26.8081 47.9291C26.9233 47.9291 26.9618 47.9675 27.0002 47.9803C27.1283 48.07 27.282 48.2621 27.5894 48.6976L28.3323 49.7735H29.0623L28.0505 48.3389C27.8455 48.07 27.7175 47.9163 27.6278 47.8266ZM26.8465 47.4167H26.3213V45.6364H26.8721C27.6534 45.6364 27.948 45.9822 27.948 46.5073C27.9352 47.1093 27.615 47.4167 26.8465 47.4167Z"
      fill="black"
    ></path>
    <path
      d="M37.4647 47.0711C36.9908 46.8534 36.6193 46.6612 36.6193 46.2129C36.6193 45.8031 36.9524 45.5597 37.4007 45.5597C37.8746 45.5597 38.1948 45.7518 38.3485 45.8799L38.6431 45.4188C38.4766 45.2907 38.0923 45.0474 37.3879 45.0474C36.6578 45.0474 36.0045 45.4829 36.0045 46.2514C36.0045 46.9942 36.5041 47.3017 37.0676 47.5834C37.6056 47.8524 38.1307 48.0702 38.1307 48.5953C38.1307 48.9924 37.7721 49.3382 37.2213 49.3382C36.6065 49.3382 36.2735 49.0436 36.171 48.9411L35.8636 49.3894C36.043 49.5559 36.4913 49.8633 37.2085 49.8633C38.1436 49.8633 38.7584 49.3382 38.7584 48.5825C38.7584 47.6859 38.0795 47.3657 37.4647 47.0711Z"
      fill="black"
    ></path>
    <path
      d="M40.9487 44.7526C41.1664 44.7526 41.3586 44.5733 41.3586 44.3556C41.3586 44.1378 41.1793 43.9585 40.9487 43.9585C40.731 43.9585 40.5516 44.1378 40.5516 44.3556C40.5516 44.5733 40.731 44.7526 40.9487 44.7526Z"
      fill="black"
    ></path>
    <path
      d="M42.2807 44.7526C42.5113 44.7526 42.6906 44.5733 42.6906 44.3556C42.6906 44.1378 42.5113 43.9585 42.2807 43.9585C42.063 43.9585 41.8837 44.1378 41.8837 44.3556C41.8837 44.5733 42.0758 44.7526 42.2807 44.7526Z"
      fill="black"
    ></path>
    <path
      d="M42.8571 48.0444C42.8571 48.8129 42.4729 49.3252 41.6659 49.3252C40.8206 49.3252 40.4363 48.8897 40.4363 47.9547V45.124H39.8087V48.0315C39.8087 49.1459 40.3595 49.876 41.6531 49.876C42.8827 49.876 43.4463 49.1587 43.4463 47.9931V45.1368H42.8571V48.0444Z"
      fill="black"
    ></path>
    <path
      d="M45.8671 45.124H44.7144V49.7863H45.8287C47.6859 49.7863 48.5057 48.7488 48.5057 47.4039C48.5185 46.0462 47.6987 45.124 45.8671 45.124ZM45.8927 49.2612H45.3548V45.6364H45.8543C47.212 45.6364 47.8524 46.1871 47.8524 47.4039C47.8524 48.6207 47.1736 49.2612 45.8927 49.2612Z"
      fill="black"
    ></path>
    <path
      d="M57.0489 47.8266C57.6637 47.6217 58.0096 47.1734 58.0096 46.4945C58.0096 45.5723 57.2923 45.124 56.3445 45.124H55.1021V49.7863H55.7425V47.9291C55.7425 47.9291 56.1267 47.9291 56.2292 47.9291C56.3445 47.9291 56.3829 47.9675 56.4213 47.9803C56.5494 48.07 56.7031 48.2621 57.0105 48.6976L57.7534 49.7735H58.4835L57.4716 48.3389C57.2667 48.07 57.1386 47.9163 57.0489 47.8266ZM56.2548 47.4167H55.7297V45.6364H56.2804C57.0617 45.6364 57.3563 45.9822 57.3563 46.5073C57.3563 47.1093 57.0361 47.4167 56.2548 47.4167Z"
      fill="black"
    ></path>
    <path
      d="M77.4272 45.124H76.7996V49.7735H79.246V49.2483H77.4272V45.124Z"
      fill="black"
    ></path>
    <path
      d="M73.3924 45.124L71.6121 49.7863H72.2397L72.6367 48.6848H74.7117L75.1216 49.7863H75.8132L74.02 45.124H73.3924ZM72.8417 48.1596L73.4052 46.661C73.5333 46.3024 73.6102 46.0718 73.6742 45.8541H73.687C73.7511 46.0462 73.8151 46.264 73.9688 46.661L74.5196 48.1596H72.8417Z"
      fill="black"
    ></path>
    <path
      d="M61.1092 45.0347C59.6491 45.0347 58.8037 46.1746 58.8037 47.4555C58.8037 48.7235 59.6619 49.8635 61.122 49.8635C62.5822 49.8635 63.4276 48.7235 63.4276 47.4427C63.4276 46.1618 62.5694 45.0347 61.1092 45.0347ZM61.1092 49.3383C60.0333 49.3383 59.4698 48.4545 59.4698 47.4427C59.4698 46.4308 60.0461 45.5598 61.122 45.5598C62.198 45.5598 62.7487 46.4436 62.7487 47.4555C62.7487 48.4673 62.1851 49.3383 61.1092 49.3383Z"
      fill="black"
    ></path>
    <path
      d="M68.6661 49.7735H69.2425L70.9204 45.124H70.3569L68.6661 49.7735Z"
      fill="black"
    ></path>
    <path
      d="M65.2078 45.124H64.5802V49.7735H67.0266V49.2483H65.2078V45.124Z"
      fill="black"
    ></path>
    <path
      d="M95.3846 45.124H94.2318V49.7863H95.3461C97.2034 49.7863 98.0231 48.7488 98.0231 47.4039C98.0231 46.0462 97.2162 45.124 95.3846 45.124ZM95.4102 49.2612H94.8722V45.6364H95.3718C96.7295 45.6364 97.3699 46.1871 97.3699 47.4039C97.3571 48.6207 96.691 49.2612 95.4102 49.2612Z"
      fill="black"
    ></path>
    <path
      d="M85.1251 45.0347C83.6649 45.0347 82.8196 46.1746 82.8196 47.4555C82.8196 48.7235 83.6778 49.8635 85.1379 49.8635C86.5981 49.8635 87.4434 48.7235 87.4434 47.4427C87.4434 46.1618 86.5853 45.0347 85.1251 45.0347ZM85.1251 49.3383C84.0492 49.3383 83.4856 48.4545 83.4856 47.4427C83.4856 46.4308 84.062 45.5598 85.1379 45.5598C86.2138 45.5598 86.7646 46.4436 86.7646 47.4555C86.7774 48.4673 86.201 49.3383 85.1251 49.3383Z"
      fill="black"
    ></path>
    <path
      d="M90.9017 45.124L89.1213 49.7863H89.749L90.146 48.6848H92.221L92.6309 49.7863H93.3225L91.5293 45.124H90.9017ZM90.3509 48.1596L90.9145 46.661C91.0426 46.3024 91.1195 46.0718 91.1835 45.8541H91.1963C91.2604 46.0462 91.3244 46.264 91.4781 46.661L92.0289 48.1596H90.3509Z"
      fill="black"
    ></path>
    <path
      d="M106.784 49.2483V47.5832H108.385V47.0581H106.784V45.6492H108.616V45.124H106.156V49.7735H108.667V49.2483H106.784Z"
      fill="black"
    ></path>
    <path
      d="M103.249 47.827H104.222V49.0566C104.005 49.2231 103.62 49.3256 103.134 49.3256C101.968 49.3256 101.443 48.4034 101.443 47.4172C101.443 46.4437 101.981 45.5599 103.147 45.5599C103.633 45.5599 103.979 45.6624 104.325 45.9314L104.645 45.4575C104.274 45.1757 103.8 45.022 103.172 45.022C101.648 45.022 100.79 46.1491 100.79 47.4172C100.79 48.6724 101.635 49.838 103.134 49.838C103.928 49.838 104.517 49.6458 104.863 49.364V47.2891H103.262V47.827H103.249Z"
      fill="black"
    ></path>
  </svg>