<svg width="16" height="16" viewBox="0 0 16 16" fill="none" xmlns="http://www.w3.org/2000/svg">
<path d="M8.0024 0.296875C6.09786 0.296317 4.2556 0.966458 2.80689 2.1868C1.35817 3.40713 0.398042 5.09761 0.0991495 6.95424C-0.199743 8.81087 0.18221 10.7119 1.17633 12.3154C2.17044 13.9189 3.7115 15.1197 5.5224 15.7019H5.70906C5.87935 15.7101 6.04636 15.6536 6.17573 15.544C6.25356 15.4771 6.31544 15.394 6.35693 15.3007C6.39842 15.2074 6.4185 15.1062 6.41573 15.0044V14.1489C6.41036 14.1062 6.39639 14.065 6.37464 14.0277C6.35289 13.9904 6.32379 13.9578 6.28906 13.9317C6.25112 13.9018 6.20699 13.8803 6.15977 13.869C6.11256 13.8576 6.06339 13.8566 6.01573 13.8659C4.2224 14.2476 3.84239 13.1421 3.82239 13.0697C3.59689 12.4839 3.19423 11.9807 2.66906 11.6286L2.56906 11.5562C2.64778 11.5186 2.73529 11.5027 2.82239 11.5101C2.98855 11.5348 3.14556 11.6009 3.27856 11.7022C3.41157 11.8036 3.51615 11.9368 3.58239 12.0892C3.8403 12.5324 4.26232 12.8597 4.75967 13.002C5.25702 13.1444 5.79093 13.0908 6.24906 12.8525C6.29857 12.8308 6.34235 12.7982 6.37703 12.7571C6.41171 12.716 6.43635 12.6676 6.44906 12.6156C6.47609 12.3136 6.60797 12.03 6.82239 11.8128C6.87183 11.7707 6.90766 11.7152 6.92544 11.6532C6.94321 11.5912 6.94216 11.5255 6.9224 11.464C6.90419 11.4025 6.86783 11.3478 6.81796 11.3068C6.76809 11.2657 6.70697 11.2403 6.6424 11.2337C5.0624 11.056 3.44239 10.5099 3.44239 7.81843C3.43089 7.14162 3.68397 6.48646 4.14906 5.98904C4.1911 5.9436 4.21909 5.88723 4.22972 5.8266C4.24035 5.76596 4.23318 5.70359 4.20906 5.64685C4.02443 5.13352 4.02678 4.57274 4.21573 4.06094C4.83135 4.16953 5.40922 4.42983 5.89573 4.8177C5.93621 4.84502 5.98252 4.86279 6.03107 4.86964C6.07962 4.87648 6.12911 4.87222 6.17573 4.85719C6.77162 4.70032 7.38567 4.62068 8.0024 4.62029C8.62153 4.61739 9.23822 4.69707 9.83573 4.85719C9.88124 4.87217 9.92968 4.8764 9.97715 4.86954C10.0246 4.86269 10.0698 4.84493 10.1091 4.8177C10.595 4.42885 11.1731 4.16843 11.7891 4.06094C11.9722 4.56735 11.9722 5.1207 11.7891 5.62711C11.7649 5.68431 11.7584 5.74725 11.7703 5.8081C11.7821 5.86894 11.8118 5.925 11.8557 5.9693C12.3136 6.46275 12.5639 7.10983 12.5557 7.77894C12.5557 10.477 10.9357 11.0166 9.34906 11.1877C9.28449 11.1942 9.22337 11.2197 9.17349 11.2607C9.12362 11.3017 9.08727 11.3565 9.06906 11.418C9.04984 11.4784 9.04908 11.5431 9.06686 11.6039C9.08464 11.6648 9.12019 11.7191 9.16906 11.7602C9.31653 11.9121 9.42916 12.0936 9.49933 12.2923C9.5695 12.491 9.59555 12.7023 9.57573 12.9118V15.0044C9.57424 15.1067 9.59556 15.208 9.63819 15.3013C9.68082 15.3945 9.74371 15.4774 9.8224 15.544C9.92168 15.6187 10.0376 15.669 10.1604 15.6907C10.2833 15.7124 10.4097 15.705 10.5291 15.669C12.3192 15.0677 13.8357 13.8599 14.8095 12.2599C15.7833 10.6599 16.1514 8.77115 15.8486 6.92872C15.5457 5.08629 14.5915 3.4093 13.1552 2.19528C11.7189 0.981251 9.89331 0.308676 8.0024 0.296875Z" fill="#3C4043"/>
</svg>
