<?xml version="1.0" standalone="no"?>
<!DOCTYPE svg PUBLIC "-//W3C//DTD SVG 20010904//EN"
 "http://www.w3.org/TR/2001/REC-SVG-20010904/DTD/svg10.dtd">
<svg version="1.0" xmlns="http://www.w3.org/2000/svg"
 width="512.000000pt" height="512.000000pt" viewBox="0 0 512.000000 512.000000"
 preserveAspectRatio="xMidYMid meet">
<metadata>
Created by potrace 1.14, written by Peter Selinger 2001-2017
</metadata>
<g transform="translate(0.000000,512.000000) scale(0.100000,-0.100000)"
fill="#000000" stroke="none">
<path d="M757 4433 c-4 -3 -7 -847 -7 -1875 l0 -1868 670 0 670 0 0 338 0 337
337 -338 337 -337 796 2 795 3 3 1850 c1 1018 0 1860 -3 1873 l-5 22 -673 -2
-672 -3 -5 -333 -5 -332 -335 335 -335 335 -781 0 c-429 0 -784 -3 -787 -7z
m1486 -96 c-266 -443 -939 -1514 -944 -1505 -4 7 -105 346 -224 753 -120 407
-220 746 -222 753 -4 9 139 12 696 12 581 0 701 -2 694 -13z m2023 -4 c-3 -10
-21 -99 -40 -198 -45 -230 -192 -986 -256 -1310 -126 -643 -159 -808 -162
-811 -2 -2 -167 371 -366 829 l-362 832 -3 338 -2 337 598 0 c565 0 598 -1
593 -17z m-1472 -1113 c-107 -245 -267 -609 -356 -810 -88 -201 -212 -483
-275 -628 -99 -225 -118 -260 -128 -245 -11 16 -645 1088 -685 1158 l-18 30
122 195 c66 108 289 469 495 804 l375 607 333 -333 333 -333 -196 -445z
m-1744 188 l201 -683 -206 -830 c-113 -456 -208 -831 -210 -834 -3 -2 -5 688
-4 1535 0 901 4 1530 9 1517 5 -12 99 -329 210 -705z m3228 -1708 l-3 -771
-64 148 c-36 81 -130 294 -209 473 l-144 325 10 55 c6 30 36 181 66 335 30
154 75 384 100 510 25 127 86 437 135 690 50 253 94 480 98 505 9 51 14 -1118
11 -2270z m-873 1040 c197 -454 360 -832 361 -840 2 -8 -67 -92 -159 -192 -89
-97 -315 -343 -502 -547 l-340 -370 -332 332 -333 332 176 400 c413 940 513
1165 632 1438 69 158 129 284 133 280 3 -5 168 -379 364 -833z m-1746 -718
l351 -593 0 -329 0 -330 -586 0 c-553 0 -585 1 -580 18 3 9 105 417 226 907
239 960 230 928 235 923 2 -2 161 -270 354 -596z m2331 -627 c261 -591 272
-617 267 -621 -2 -2 -319 -3 -705 -2 l-701 3 276 300 c666 725 677 736 684
723 4 -7 85 -189 179 -403z"/>
</g>
</svg>
